<?xml version="1.0" encoding="UTF-8" standalone="no"?>
<svg width="310px" height="86px" viewBox="0 0 310 86" version="1.1" xmlns="http://www.w3.org/2000/svg" xmlns:xlink="http://www.w3.org/1999/xlink" xmlns:sketch="http://www.bohemiancoding.com/sketch/ns">
    <title>footer-logo</title>
    <desc></desc>
    <defs></defs>
    <g id="Page-1" stroke="none" stroke-width="1" fill="none" fill-rule="evenodd" sketch:type="MSPage">
        <path d="M298.140223,46.2806894 C293.424723,46.2806894 290.528691,48.3036436 288.414103,49.780792 C287.365745,50.5131976 286.537655,51.0917312 285.702314,51.2309242 C285.600972,51.2477165 285.499973,51.256284 285.402628,51.2563982 C284.921155,51.2563982 284.48313,51.0434106 284.200801,50.6722672 C283.521554,49.7787929 283.941309,48.264633 284.385728,46.6613712 C284.449102,46.4319911 284.610792,45.9186275 284.878563,45.0679906 L284.890724,45.0293798 C286.39943,40.2357586 290.990638,25.6480186 290.990638,20.1111395 C290.990638,16.8718882 290.315502,14.6958045 288.865945,13.2629786 C287.283758,11.699013 284.649844,10.9388488 280.813419,10.9388488 C279.297461,10.9388488 278.063319,11.422626 277.14502,12.3769294 C274.78904,14.8252878 274.980875,19.868794 275.120984,23.5514411 C275.153071,24.3948813 275.183273,25.1916001 275.177164,25.8427289 C275.091523,35.0548299 272.742166,41.4682196 270.469542,47.6718773 L270.085186,48.7226506 L269.819072,49.1522814 C269.544564,49.390743 267.821412,50.8089471 265.975452,52.2091024 C262.916132,54.5294625 261.9525,54.9551522 261.673311,55.0288326 C261.621527,54.9000919 261.571456,54.6212488 261.657496,54.0404306 C261.739597,53.4861715 261.90928,52.899356 262.021584,52.5110205 C262.113334,52.1936238 262.139768,52.0978965 262.139768,52.0027403 C262.139768,50.2185333 261.88747,49.0607807 261.321784,48.2488688 C260.635629,47.2642365 259.472398,46.7855997 257.765575,46.7855997 C252.979792,46.7855997 250.288898,50.5205085 249.139826,52.1154883 L249.062807,52.2222963 C248.859495,52.5035382 248.611308,52.8897033 248.3706,53.2643308 C247.363863,54.830067 246.884103,55.5223767 246.058239,55.5227766 C245.696035,55.5227766 245.356669,55.3603942 245.127095,55.0774388 C244.71756,54.5722999 244.708767,53.9072347 245.087814,52.1128039 C245.185159,51.6532441 245.286615,51.2294392 245.384759,50.819685 C245.771342,49.2070562 245.918873,48.4034262 245.602801,48.002468 C245.054243,47.3069025 242.835573,46.9542649 239.008225,46.9542649 C235.673427,46.9542649 233.189499,48.0913984 231.625696,50.3340801 C230.258354,52.2949486 229.971629,54.6217629 229.922357,55.8341189 C229.787843,59.1206627 228.408568,65.6884385 227.119845,71.6071988 L226.796864,72.0319746 C224.344566,74.5319663 217.948107,80.2977685 211.144624,80.2977685 C206.668233,80.2977685 203.851219,78.1973643 202.27634,76.4353756 C200.39481,74.3302878 199.537716,71.9016918 199.537716,70.536092 C199.537716,69.9887441 199.54491,69.6334791 199.644025,69.3165393 C199.836032,68.7034502 200.349021,68.3373902 201.016449,68.3373902 C201.184077,68.3373902 201.349592,68.3574381 201.545481,68.3810843 C201.813822,68.4136408 202.147594,68.4541364 202.604973,68.4541364 C202.785275,68.4541364 202.9738,68.4476251 203.165293,68.434831 C203.387388,68.4199236 208.659726,68.0448392 213.537716,65.7390437 C218.99184,63.1610308 221.724298,59.2871575 221.659211,54.2250313 C221.621757,51.2978077 220.909796,49.3910286 219.35079,48.0423353 C217.539086,46.4751141 214.497293,45.7132935 210.051675,45.7132935 C198.711282,45.7132935 189.764094,50.8855404 186.117906,59.549094 L185.524186,60.9598158 L184.38225,59.9409707 C180.303119,56.3014466 178.588474,52.2192691 178.159984,51.0546625 L178.132008,50.9787546 L178.115508,50.8993626 C177.788817,49.3241451 177.167692,48.1856408 176.21645,47.418851 C175.26635,46.6529751 174.014737,46.2806894 172.390016,46.2806894 C172.070176,46.2806894 170.394355,46.3190146 168.809257,47.0754662 C166.74948,48.0584422 165.660756,49.8495603 165.660756,52.2552526 C165.660756,53.3663981 166.667378,54.3631391 167.733151,55.4184246 C169.067093,56.739245 170.446482,58.1050161 169.893527,59.6763497 C168.851392,62.6405277 166.320305,69.021875 164.200636,71.9570377 C161.340916,75.9164717 158.076971,77.9241758 154.499523,77.9244042 C154.396526,77.9244042 154.290559,77.9226907 154.184993,77.9191495 C152.402749,77.8596912 151.417479,76.9884352 150.904776,76.2680812 C149.883194,74.8325708 149.632952,72.516323 150.13966,69.1868847 C150.639118,65.9057099 151.841573,61.8785357 152.92944,58.361241 C153.611827,56.1553424 154.201036,54.2501625 154.405832,53.0769885 C154.533151,52.3470389 154.678056,51.6560999 154.806631,51.0428965 C155.219934,49.0714614 155.449965,47.8344882 154.99173,47.2696625 C154.511056,46.6775923 152.935778,46.3645936 150.436263,46.3645936 C143.031068,46.3645936 140.341773,54.261643 139.877885,55.8446284 C139.507003,57.1103884 139.102036,58.3891138 138.710372,59.6256873 L138.702036,59.6520752 C137.581111,63.1915882 136.422047,66.8516172 135.873775,70.7519926 L135.828042,71.0776141 L135.610629,71.3238436 C135.284622,71.6928165 127.530926,80.3604825 119.229528,80.3604825 C115.604407,80.3604825 112.767467,79.5713602 110.79767,78.0150482 C109.022277,76.6124369 108.234495,74.8133796 107.7963,73.5822322 C107.641518,73.1474039 107.648084,72.8036193 107.687193,72.5788657 C109.022049,72.0392856 117.117167,68.7201853 121.667952,65.7770834 C126.563527,62.6109413 129.810458,59.4455988 129.744058,54.2887733 C129.706661,51.36115 128.9947,49.4540853 127.435751,48.1052207 C125.623989,46.537771 122.58214,45.7758361 118.136465,45.7758361 C110.962842,45.7758361 104.496385,47.9099963 99.9282441,51.7851262 C94.9464002,56.0111802 92.3131717,62.1680024 92.3131717,69.5941258 L92.3494264,72.9390427 C92.1254469,73.1328963 91.4185671,73.6443179 90.1438884,74.1371196 C88.8569344,74.6346619 86.6710367,75.2277031 83.5655273,75.2277031 C80.3215081,75.2277031 77.3294443,72.936244 74.6721792,68.4168964 C72.3804294,64.5191483 70.9059219,59.8591798 70.2309006,57.428242 C68.661503,51.7759875 66.3578206,49.3801764 64.8334701,47.7948493 C64.6653285,47.6199584 64.4797733,47.4409551 64.3004413,47.2678919 C63.3490853,46.3498575 62.7541667,45.7082101 63.1360679,45.1773117 C63.3129449,44.9586695 64.6165132,44.4254294 65.8771469,43.909724 C69.3516542,42.4884356 75.1668409,40.109531 80.1680967,36.0416898 C86.2734918,31.0758621 89.3691239,25.0080275 89.3691239,18.0068513 C89.3691239,14.2745128 88.4627009,11.0942058 86.674862,8.55434674 C84.8895352,6.01785756 82.1491985,4.01329487 78.5300152,2.59629021 C72.6521965,0.295064133 65.8163989,0 60.5176838,0 C56.2815436,0 41.371867,0.35252339 27.3723245,4.88872034 C10.0398675,10.5051056 0.843236541,20.1783086 0.0376984732,33.6397672 C-0.210431688,37.7883712 0.767244538,41.0637202 2.94355045,43.3748845 C5.14794656,45.7161493 8.50689585,46.9535795 12.6573952,46.9535795 C17.1814601,46.9535795 21.923852,44.9409634 25.0338719,41.7011981 C27.1581652,39.4882171 27.9371546,37.2872305 28.2166293,35.8304156 L28.3405802,35.184713 L27.7139174,35.3830788 C26.4778912,35.7745556 25.3174002,35.9730357 24.2647026,35.9730357 C21.8076088,35.9730357 20.0347285,34.9465369 18.9953909,32.9220977 C18.0913087,31.1611942 17.9562816,29.0429125 17.9562816,27.9369646 C17.9562816,22.4553173 21.6449483,16.5884188 28.0763496,11.840605 C34.1645593,7.34627444 41.712946,4.65248626 48.294276,4.62107216 C47.2044102,6.24095483 44.2593918,10.7990274 42.7882529,14.846478 C40.8270197,20.2418793 26.3697553,69.1992219 24.157366,79.7436237 C23.3847712,83.4252998 23.7630184,84.8637232 24.2161157,85.4218662 C24.4091502,85.6600423 24.7583937,85.9334021 25.7536549,85.9334021 C25.8973602,85.9334021 26.0470034,85.9280331 26.21092,85.9169525 C26.3917936,85.9049009 26.6165723,85.8990179 26.8982737,85.8990179 C27.398188,85.8990179 28.0295896,85.9173523 28.7607914,85.9384855 L28.7701548,85.9387139 C29.7598208,85.9675007 30.8813737,86 32.0669289,86 C35.3043823,86 37.642264,85.7328659 39.0156011,85.2059085 C40.1569655,84.7679959 40.3183129,84.2555461 40.334756,84.0559809 C40.6828576,79.8725929 41.5484585,74.3330865 42.7096345,68.8578933 C43.3175706,65.992013 44.4861118,61.6124296 45.6162287,57.3771227 L45.6182841,57.3691835 C46.6689264,53.4315109 47.6612186,49.7122521 48.0046956,47.9255891 C48.3843131,45.9523263 49.8902222,45.7989683 50.3427486,45.7989683 C51.6836563,45.7989683 53.0533394,46.8058761 53.8158857,47.8038737 C55.6304446,50.1769524 57.7112324,54.419456 57.3193968,61.1540693 C57.0109755,66.4700786 57.2442041,76.1840056 62.2712093,81.5133231 C64.6582488,84.0438722 67.9288739,85.3268814 71.9922479,85.3268814 C72.0873093,85.3268814 72.1820852,85.3262531 72.2784597,85.3248823 C77.7783167,85.2466326 83.0957586,83.0655227 86.5880793,81.2495588 C89.7332118,79.6141976 92.1996119,77.8635751 93.2302142,76.9527374 C94.3833971,79.6740557 98.4398628,85.9982865 111.154678,85.9982865 C116.083082,85.9982865 121.077772,84.823913 125.999953,82.5078366 C130.003264,80.6240183 132.926929,78.4778066 134.49764,77.3246804 C134.826387,77.0833629 135.142402,76.8514126 135.343829,76.7169602 C135.530697,77.0388691 135.596926,77.4541065 135.540803,77.9558755 C135.486906,78.4425656 135.30706,80.9700875 137.066866,82.9363821 C138.635407,84.6887752 141.322076,85.5772804 145.052193,85.5772804 C151.432666,85.5772804 158.464695,83.1863813 164.345198,79.017558 C170.709342,74.5060925 175.290615,68.228526 177.245111,61.3411831 L177.747709,59.5694275 L179.062468,60.8588909 C180.401263,62.172229 182.039287,63.3310668 183.931094,64.3031906 L184.624157,64.6593124 L184.514023,65.4307857 C184.324928,66.7552044 184.228668,68.1282293 184.22804,69.5116495 L184.228097,69.5197029 C184.236033,69.9179195 184.3243,73.4951295 184.960612,76.4478841 C184.965636,76.4713019 185.580081,78.8938436 188.2072,81.2788596 C189.703289,82.6370914 191.554388,83.7177366 193.708998,84.490695 C196.379966,85.4488823 199.529438,85.9347158 203.069889,85.9347158 C213.60954,85.9347158 220.521215,80.9744284 223.703059,78.0176756 L226.205485,75.6923463 L225.518531,79.0392052 C225.344795,79.8841875 224.816105,82.4556892 224.792411,83.3350557 C224.769573,84.1820942 224.874055,84.6545053 224.965805,84.9017057 L225.060524,85.157131 L235.55941,85.157131 C235.739028,85.157131 235.923441,85.1600439 236.101745,85.1628426 L236.119444,85.1631282 C236.287929,85.1659269 236.462179,85.1688399 236.634717,85.1688399 C237.338342,85.1688399 237.788928,85.1515335 238.114135,84.9115869 C238.499176,84.627432 238.556898,84.1402849 238.588813,83.5796859 C239.498148,67.5926474 245.019872,59.8546105 247.351873,57.2697436 L247.411593,57.2034312 L247.497291,57.1009641 C248.100032,56.3751841 248.576081,55.8019623 249.268916,55.8019623 C249.789098,55.8019623 250.376937,56.1922968 250.441796,56.9155638 L250.445678,56.9591437 L250.459095,57.0007817 C250.699289,57.745753 252.254414,60.5665112 255.475938,60.7561953 C255.603429,60.7636205 255.730862,60.7673902 255.854699,60.7673902 C256.497691,60.7673902 257.135201,60.6754325 257.92167,60.4692417 L257.942395,60.4631874 C260.072284,59.7773889 262.153357,58.6379136 264.305341,56.9790774 C264.745592,56.6384343 265.183731,56.2582665 265.644764,55.8168697 L268.410393,53.1696315 L267.459837,56.8790092 C266.41222,60.9668412 265.924353,64.845341 265.924353,69.0849888 C265.924353,74.6688747 267.478678,78.9274852 270.544164,81.7424176 C273.497461,84.4544831 277.836713,85.8296784 283.439168,85.8297927 L283.485357,85.8300211 C284.220041,85.8300211 290.850072,85.7292104 297.321725,82.2364758 C305.734456,77.6960522 310,69.6473584 310,58.3138342 C310,54.3629677 308.993035,51.3375037 307.006909,49.3213464 C305.019241,47.3037611 302.036027,46.2806894 298.140223,46.2806894 L298.140223,46.2806894 Z M52.6159214,42 C51.9422484,42 51.4913018,41.9594637 51.3286717,41.9420422 L51.311181,41.9405619 C50.8973461,41.9155683 50.5373288,41.7178969 50.2974481,41.3838139 C49.6523657,40.4856956 50.0926049,39.0920322 51.2692481,35.3674172 C51.4488644,34.7987133 51.6524182,34.1541177 51.8609053,33.4803154 C57.3751348,15.6607361 61.212834,7.15289362 61.7400223,6.2160608 C62.2470849,5.31475419 63.0239083,4.81459763 63.5377542,4.48364599 C63.6717376,4.3974494 63.7983211,4.31603518 63.8863914,4.24896809 C64.1031754,4.0838054 64.3707497,4 64.6816585,4 C65.7040246,4 68.7001512,5.12875402 70.9931732,7.73793732 C72.6260328,9.59577557 74.4554387,12.8541661 73.8976978,17.8262974 C73.312992,23.0380028 72.0367301,27.5084403 70.1042299,31.113439 C68.4973822,34.1107347 66.4205835,36.5435965 63.9314075,38.3443309 C59.5347341,41.5250078 54.9546884,42 52.6159214,42 L52.6159214,42 Z M107.085726,66.938516 C106.60608,64.8698801 108.269903,60.0273836 108.841378,58.8408098 L109.068071,58.3675586 C110.658928,55.0373408 113.321576,49.4635449 118.36506,49.0296356 L118.37884,49.0281998 C118.464456,49.0176895 118.644331,49 118.887853,49 C119.95891,49 120.945028,49.3434517 121.664751,49.9668912 C122.550738,50.734431 123,51.8757474 123,53.3590796 C123,55.9405957 120.664062,59.1831128 118.477954,61.3567944 C115.501133,64.3169114 110.112697,67.739195 107.286553,68 C107.239678,67.7086404 107.166825,67.2882854 107.085726,66.938516 L107.085726,66.938516 Z M200.376838,58.7990063 L200.610444,58.3292034 C202.253387,55.0128472 205.003173,49.4623112 210.213028,49.029452 L210.227202,49.0279651 C210.315628,49.0175568 210.501405,49 210.752801,49 C211.859003,49 212.877538,49.3419867 213.620936,49.9629385 C214.535996,50.7273761 215,51.8641102 215,53.3414586 C215,55.912135 212.587411,59.1404211 210.329568,61.3044879 C207.216511,64.2885223 203.76649,66 200.864174,66 C200.258664,66 199.721924,65.7020484 199.391434,65.1825488 C198.481216,63.7516946 199.303475,60.9471747 200.376838,58.7990063 L200.376838,58.7990063 Z M295.098023,64.9680539 C293.927519,69.5206613 292.093852,74.034945 290.067276,77.353293 C288.982379,79.1297691 287.876624,80.5184034 286.780685,81.4806447 C285.632377,82.488772 284.524391,83 283.487457,83 C281.613301,83 280.225683,81.457389 279.474738,78.5388803 C278.734556,75.661652 278.864668,71.4577099 279.831723,67.0050624 C280.800283,62.5454779 282.476176,58.4491718 284.429749,55.7663477 C286.149144,53.4051236 288.022742,52.1538631 289.9984,52.0472506 L290.030747,52.0441233 C290.173128,52.0239949 290.40463,52 290.699264,52 C291.637987,52 293.400993,52.2487055 294.661957,53.9144184 C296.285649,56.0597452 296.432325,59.7787285 295.098023,64.9680539 L295.098023,64.9680539 Z" id="footer-logo" fill="#9F9E97" sketch:type="MSShapeGroup"></path>
    </g>
</svg>
